<?xml version="1.0" standalone="no"?>
<!DOCTYPE svg PUBLIC "-//W3C//DTD SVG 20010904//EN"
 "http://www.w3.org/TR/2001/REC-SVG-20010904/DTD/svg10.dtd">
<svg version="1.0" xmlns="http://www.w3.org/2000/svg"
 width="1024.000000pt" height="1024.000000pt" viewBox="0 0 1024.000000 1024.000000"
 preserveAspectRatio="xMidYMid meet">
<metadata>
Created by potrace 1.16, written by Peter Selinger 2001-2019
</metadata>
<g transform="translate(0.000000,1024.000000) scale(0.100000,-0.100000)"
fill="#000000" stroke="none">
<path d="M0 5120 l0 -5120 5120 0 5120 0 0 5120 0 5120 -5120 0 -5120 0 0
-5120z m7155 2145 c33 -9 103 -36 155 -62 211 -102 342 -304 373 -574 21 -183
-33 -386 -121 -459 -91 -75 -217 -97 -313 -53 -44 20 -99 76 -99 101 0 7 -4
12 -10 12 -5 0 -10 -4 -10 -8 0 -4 -19 -27 -41 -50 -80 -80 -217 -105 -336
-60 -81 30 -171 121 -203 203 -82 216 9 473 200 564 46 22 69 26 140 26 74 0
91 -3 131 -27 25 -15 60 -43 77 -62 l31 -35 7 44 6 45 100 0 c90 0 99 -2 94
-17 -16 -61 -30 -221 -31 -361 l0 -164 28 -24 c61 -52 123 -19 152 80 23 77
23 252 2 335 -34 127 -108 235 -200 292 -176 108 -426 118 -616 23 -184 -92
-294 -299 -294 -549 1 -183 50 -302 176 -422 75 -72 133 -103 246 -132 155
-39 313 -23 438 43 l64 34 55 -70 c53 -65 55 -70 37 -83 -45 -34 -136 -76
-218 -101 -76 -22 -109 -26 -210 -26 -152 -1 -244 19 -360 77 -114 56 -174
102 -248 190 -291 347 -210 912 168 1167 61 41 189 93 280 114 76 17 266 12
350 -11z m-4015 -131 l0 -116 -92 -112 c-99 -120 -170 -207 -458 -566 l-181
-225 355 -3 356 -2 0 -125 0 -125 -545 0 -545 0 0 106 0 105 87 107 c48 59
117 143 153 187 218 263 510 624 510 629 0 3 -171 6 -380 6 l-380 0 0 118 c0
65 3 122 7 125 3 4 255 7 560 7 l553 0 0 -116z m724 -233 c147 -52 253 -161
304 -316 23 -69 37 -198 27 -244 l-7 -31 -374 0 -374 0 6 -27 c22 -98 27 -110
78 -159 62 -60 124 -81 213 -70 69 8 100 24 146 75 l37 41 130 0 c85 0 130 -4
130 -11 0 -5 -12 -36 -27 -67 -86 -182 -347 -296 -566 -248 -112 25 -191 69
-273 151 -58 58 -75 83 -98 143 -68 176 -53 400 37 551 64 108 190 197 321
227 80 18 213 11 290 -15z m1748 18 c94 -20 177 -67 253 -144 123 -124 160
-225 152 -415 -5 -132 -28 -209 -91 -303 -94 -141 -247 -217 -441 -217 -150 0
-278 46 -373 135 -221 205 -228 583 -15 798 62 63 184 131 263 146 66 13 191
13 252 0z m-694 -130 l3 -126 -79 -5 c-126 -7 -197 -53 -246 -158 -19 -42 -21
-66 -24 -342 l-3 -298 -135 0 -134 0 0 520 0 520 130 0 130 0 0 -92 0 -92 28
45 c62 97 175 160 282 156 l45 -2 3 -126z m-288 -1739 l0 -570 -69 0 c-94 0
-101 4 -101 52 l0 41 -21 -27 c-80 -102 -245 -105 -349 -7 -91 87 -125 192
-118 367 7 174 65 286 179 349 97 53 214 31 281 -55 l23 -29 -3 224 -3 225 90
0 91 0 0 -570z m-2054 528 c92 -49 146 -137 165 -274 12 -90 6 -154 -21 -227
-60 -157 -151 -207 -377 -207 l-123 0 0 -195 0 -195 -95 0 -95 0 0 566 0 565
248 -3 c246 -3 247 -3 298 -30z m4167 -8 c51 -40 59 -129 17 -183 -41 -52
-124 -35 -155 30 -50 105 53 220 138 153z m-373 -200 l0 -110 70 0 70 0 0 -90
0 -90 -70 0 -70 0 0 -180 c0 -110 4 -188 11 -203 14 -30 48 -47 94 -47 l35 0
0 -84 0 -85 -47 -7 c-66 -10 -149 9 -193 44 -21 18 -44 50 -57 83 -21 50 -22
70 -23 267 l0 212 -50 0 -50 0 0 89 0 90 48 3 47 3 3 108 3 107 89 0 90 0 0
-110z m-2668 -113 c91 -41 170 -146 198 -266 15 -66 8 -215 -14 -287 -47 -152
-188 -251 -341 -242 -165 11 -279 132 -307 326 -35 237 77 444 267 493 48 13
139 1 197 -24z m2185 -3 c86 -41 158 -146 165 -239 l3 -40 -60 -3 c-83 -4
-102 2 -115 42 -17 53 -52 79 -112 84 -112 8 -162 -69 -156 -238 5 -150 48
-210 150 -210 38 0 54 6 82 30 19 17 38 44 41 60 6 27 11 30 44 30 21 0 59 -3
85 -6 l48 -7 -7 -36 c-33 -181 -214 -298 -384 -247 -79 23 -153 84 -191 157
-66 127 -65 349 2 482 40 80 120 149 193 168 51 14 156 0 212 -27z m1426 10
c133 -45 227 -209 227 -395 -1 -323 -282 -510 -521 -347 -150 102 -202 381
-107 577 76 158 233 222 401 165z m-4103 -78 l0 -93 -56 -7 c-72 -8 -106 -29
-136 -80 -22 -39 -23 -50 -26 -283 l-3 -243 -90 0 -89 0 2 393 3 392 83 3 82
4 0 -64 c1 -51 3 -59 12 -43 35 65 113 114 181 115 l37 0 0 -94z m4885 75 c50
-23 78 -53 107 -116 22 -48 23 -61 26 -357 l3 -308 -85 0 -86 0 0 248 c0 263
-6 313 -40 346 -31 31 -129 30 -163 -2 -41 -39 -47 -82 -47 -346 l0 -246 -90
0 -90 0 0 395 0 396 83 -3 82 -3 5 -48 5 -47 27 33 c57 73 176 98 263 58z
m-3175 -262 c0 -221 3 -266 16 -295 41 -87 162 -82 211 8 16 29 18 65 21 291
l3 257 85 0 84 0 0 -390 0 -390 -85 0 -85 0 -1 33 c-1 17 -1 35 0 40 2 15 -11
6 -35 -22 -53 -63 -172 -78 -260 -33 -51 26 -78 56 -105 117 -25 55 -26 87
-21 448 l2 197 85 0 85 0 0 -261z m1860 -129 l0 -390 -90 0 -90 0 0 390 0 390
90 0 90 0 0 -390z m1450 -797 l0 -66 -1757 6 c-966 4 -2361 7 -3100 7 l-1343
0 0 60 0 60 3100 0 3100 0 0 -67z m-4440 -388 c0 -73 5 -86 27 -64 15 15 90
14 109 -2 24 -19 44 -65 44 -98 0 -86 -78 -136 -152 -97 -16 8 -28 11 -28 5 0
-5 -9 -9 -20 -9 -19 0 -20 7 -20 170 0 163 1 170 20 170 18 0 20 -7 20 -75z
m1260 -100 c0 -168 -1 -175 -20 -175 -12 0 -20 7 -20 17 0 15 -2 15 -19 -1
-11 -10 -36 -17 -62 -18 -36 0 -48 5 -71 31 -39 43 -40 116 -2 160 32 39 86
51 126 28 l28 -16 0 74 c0 68 2 75 20 75 19 0 20 -7 20 -175z m-2822 149 c32
-22 47 -54 31 -65 -21 -13 -39 -11 -39 6 0 39 -89 44 -109 6 -16 -29 13 -59
73 -76 78 -23 105 -62 85 -122 -13 -41 -52 -63 -115 -63 -39 0 -51 5 -81 35
-19 19 -33 40 -31 47 6 16 48 23 48 9 0 -6 9 -20 20 -31 24 -24 77 -26 102 -3
39 35 13 73 -62 93 -92 24 -119 92 -61 151 24 23 38 29 73 29 24 0 54 -7 66
-16z m5822 -64 c0 -38 2 -40 31 -40 24 0 30 -4 27 -17 -2 -11 -14 -19 -31 -21
-26 -3 -27 -5 -27 -63 0 -54 2 -60 25 -69 33 -13 35 -50 2 -50 -12 0 -33 7
-45 16 -19 13 -22 24 -22 91 l0 76 -47 -6 c-61 -7 -73 -24 -73 -109 0 -61 -2
-68 -20 -68 -19 0 -20 7 -20 110 0 103 1 110 20 110 11 0 20 -5 20 -11 0 -8 5
-8 15 1 8 7 26 10 40 8 14 -3 25 -2 25 2 0 4 9 10 20 13 13 3 20 14 20 29 0
28 7 38 27 38 9 0 13 -13 13 -40z m-5220 -5 c0 -31 3 -35 25 -35 18 0 25 -5
25 -20 0 -15 -7 -20 -25 -20 -26 0 -26 -1 -23 -67 3 -60 5 -68 23 -68 11 0 21
-8 23 -18 3 -13 -4 -17 -30 -17 -49 0 -58 14 -58 96 0 68 -2 73 -22 76 -31 4
-34 31 -6 43 14 6 24 20 26 38 2 19 9 27 23 27 15 0 19 -7 19 -35z m1560 0 c0
-31 3 -35 25 -35 18 0 25 -5 25 -20 0 -15 -7 -20 -25 -20 -25 0 -26 -1 -23
-62 3 -57 5 -63 26 -66 34 -5 30 -42 -5 -42 -47 0 -63 25 -63 102 0 61 -2 68
-20 68 -27 0 -27 36 0 50 11 6 23 22 26 35 10 39 34 31 34 -10z m-2020 -104
c0 -85 10 -105 52 -99 32 4 48 43 48 116 0 55 2 62 20 62 19 0 20 -7 20 -110
0 -103 -1 -110 -20 -110 -14 0 -18 5 -13 17 6 16 5 16 -17 0 -25 -17 -66 -22
-95 -11 -29 12 -45 60 -45 139 0 73 1 75 25 75 25 0 25 -1 25 -79z m330 59
c24 -24 25 -39 4 -47 -10 -4 -20 0 -26 10 -11 20 -64 23 -71 4 -8 -22 5 -34
48 -40 64 -10 92 -58 60 -104 -31 -44 -120 -38 -149 10 -18 29 12 39 44 15 32
-23 63 -21 68 6 5 23 -14 36 -50 36 -32 0 -68 31 -68 59 0 10 9 30 21 45 26
33 88 37 119 6z m368 4 c20 -14 22 -23 22 -110 0 -88 -1 -94 -21 -94 -11 0
-17 5 -14 10 3 6 2 10 -4 10 -5 0 -13 -4 -16 -10 -9 -14 -91 -12 -102 3 -39
49 -7 100 71 111 41 6 47 10 44 29 -4 31 -50 35 -77 6 -11 -13 -26 -19 -35
-16 -22 9 -20 24 9 52 29 29 88 34 123 9z m242 -1 c0 -12 3 -14 8 -6 10 16 57
26 87 19 38 -10 55 -54 55 -141 0 -68 -2 -75 -20 -75 -18 0 -20 7 -20 68 0 77
-17 112 -55 112 -38 0 -55 -35 -55 -112 0 -61 -2 -68 -20 -68 -19 0 -20 7 -20
110 0 103 1 110 20 110 12 0 20 -7 20 -17z m345 -8 c23 -22 25 -32 25 -110 0
-78 -2 -85 -20 -85 -11 0 -20 5 -20 10 0 7 -6 7 -19 0 -31 -16 -79 -12 -101
10 -42 42 -13 86 66 101 56 11 62 15 48 37 -17 26 -59 27 -77 1 -10 -13 -22
-19 -31 -16 -43 17 13 77 71 77 23 0 42 -8 58 -25z m1610 2 c18 -15 28 -36 32
-65 l6 -42 -77 0 c-68 0 -77 -2 -74 -17 2 -10 15 -24 30 -32 25 -14 29 -14 57
7 54 40 85 18 38 -26 -71 -67 -177 -11 -177 94 0 28 8 44 34 70 42 42 91 46
131 11z m250 -2 c29 -28 31 -40 8 -49 -10 -4 -23 1 -35 14 -22 23 -56 26 -83
6 -23 -17 -27 -85 -6 -110 19 -22 77 -21 97 3 15 17 54 19 54 2 0 -13 -54 -59
-78 -66 -32 -9 -88 12 -112 42 -14 18 -20 41 -20 75 0 43 4 54 31 79 42 39
108 41 144 4z m1237 -6 c10 -12 15 -25 12 -30 -9 -15 -36 -10 -49 7 -9 12 -20
15 -39 10 -36 -9 -31 -38 9 -49 63 -19 80 -32 83 -64 4 -44 -26 -73 -77 -73
-37 0 -91 30 -91 51 0 19 31 21 49 4 26 -23 76 -17 76 10 0 14 -10 21 -39 27
-50 11 -76 34 -76 67 0 33 10 48 40 60 34 14 82 5 102 -20z m-2199 -51 l33
-72 32 72 c27 60 36 72 56 72 23 0 22 -4 -43 -147 -54 -118 -72 -149 -89 -151
-27 -4 -27 4 -2 61 l20 45 -45 94 c-25 51 -45 94 -45 96 0 1 11 2 25 2 21 0
30 -11 58 -72z m1267 52 c24 -24 25 -39 4 -47 -10 -4 -20 0 -26 10 -11 21 -64
22 -71 3 -8 -20 10 -33 56 -41 39 -8 67 -36 67 -68 0 -30 -45 -67 -83 -67 -54
0 -114 59 -74 73 6 2 22 -5 34 -15 27 -25 73 -18 73 11 0 15 -12 22 -50 31
-71 17 -91 61 -48 107 28 30 89 32 118 3z m350 -7 c62 -56 47 -159 -28 -190
-73 -31 -152 21 -152 99 0 74 40 117 107 118 33 0 50 -7 73 -27z m130 11 c0
-14 1 -14 16 0 23 24 87 21 110 -5 15 -17 20 -40 22 -110 4 -85 3 -89 -17 -89
-19 0 -21 6 -22 63 -1 92 -9 111 -45 115 -44 4 -56 -17 -62 -103 -4 -65 -7
-75 -23 -75 -17 0 -19 9 -19 110 0 103 1 110 20 110 12 0 20 -7 20 -16z m560
-64 c0 -70 2 -81 20 -90 28 -15 59 -3 71 27 5 13 9 51 9 84 0 52 2 59 20 59
19 0 20 -7 20 -110 0 -103 -1 -110 -20 -110 -11 0 -20 7 -20 16 0 14 -2 14
-22 0 -34 -24 -66 -19 -99 13 -27 28 -29 34 -29 110 0 80 0 81 25 81 25 0 25
-1 25 -80z m240 64 c0 -14 2 -14 22 0 12 9 38 16 58 16 59 -1 100 -47 100
-115 0 -75 -107 -137 -154 -89 -15 14 -16 11 -16 -34 0 -49 -16 -72 -41 -56
-5 3 -9 70 -9 150 0 137 1 144 20 144 11 0 20 -7 20 -16z m270 0 c0 -14 1 -14
16 0 9 10 33 16 58 16 72 0 120 -73 96 -146 -22 -65 -96 -95 -148 -58 -22 15
-22 15 -22 -40 0 -49 -2 -56 -20 -56 -19 0 -20 7 -20 150 0 143 1 150 20 150
12 0 20 -7 20 -16z m388 -9 c79 -67 31 -195 -73 -195 -72 0 -114 57 -102 138
13 79 111 111 175 57z m-3498 -565 c0 -163 -1 -170 -20 -170 -11 0 -20 7 -20
16 0 14 -2 14 -22 0 -57 -40 -139 1 -153 77 -16 86 70 161 143 124 l32 -15 0
69 c0 62 2 69 20 69 19 0 20 -7 20 -170z m1540 101 l0 -69 29 14 c35 17 72 10
98 -18 14 -16 18 -37 18 -106 0 -83 -1 -87 -22 -90 -22 -3 -23 -1 -23 77 0 71
-2 82 -22 95 -29 20 -34 20 -58 -4 -16 -16 -20 -33 -20 -95 0 -68 -2 -75 -20
-75 -19 0 -20 7 -20 170 0 163 1 170 20 170 18 0 20 -7 20 -69z m-3050 -6 c0
-31 3 -35 25 -35 20 0 25 -5 25 -25 0 -20 -5 -25 -25 -25 -25 0 -26 -1 -23
-62 3 -54 6 -64 26 -73 31 -14 29 -45 -3 -45 -46 0 -65 32 -65 109 0 64 -2 70
-22 73 -31 4 -34 31 -6 43 16 7 24 20 26 43 2 24 8 32 23 32 15 0 19 -7 19
-35z m1100 -10 c0 -31 3 -35 25 -35 18 0 25 -5 25 -20 0 -15 -7 -20 -25 -20
-26 0 -26 -1 -23 -67 3 -62 5 -68 26 -71 14 -2 22 -10 22 -23 0 -14 -7 -19
-29 -19 -54 0 -76 41 -69 130 3 46 1 50 -19 50 -32 0 -30 33 2 54 14 9 25 25
25 36 0 13 7 20 20 20 16 0 20 -7 20 -35z m-1650 -45 c25 -25 25 -36 3 -44
-11 -5 -22 -1 -29 9 -18 24 -69 16 -69 -10 0 -15 10 -21 45 -28 50 -9 70 -28
70 -66 0 -40 -27 -61 -78 -61 -33 0 -52 6 -69 22 -27 25 -29 34 -7 42 8 3 28
-4 44 -15 30 -23 56 -20 66 6 8 21 3 25 -47 36 -55 13 -69 25 -69 60 0 42 32
69 80 69 27 0 47 -7 60 -20z m785 10 c27 -10 55 -62 55 -100 0 -18 -6 -20 -75
-20 -81 0 -97 -13 -53 -44 30 -21 50 -20 80 3 27 22 52 14 42 -13 -9 -23 -56
-46 -93 -46 -43 0 -90 45 -98 92 -15 99 54 162 142 128z m251 -4 c13 -10 23
-11 32 -4 6 6 31 11 53 12 64 1 79 -25 79 -135 0 -82 -1 -89 -20 -89 -18 0
-20 7 -20 77 0 77 -14 113 -46 113 -32 0 -44 -31 -44 -111 0 -72 -2 -79 -20
-79 -18 0 -20 7 -20 76 0 83 -11 114 -40 114 -42 0 -60 -34 -60 -115 0 -68 -2
-75 -20 -75 -19 0 -20 7 -20 110 0 103 1 110 20 110 11 0 20 -5 20 -11 0 -5
10 -3 22 5 28 20 58 20 84 2z m473 -11 c12 -12 17 -40 19 -110 4 -91 3 -95
-17 -95 -12 0 -21 6 -21 16 0 14 -2 14 -22 0 -72 -51 -162 38 -93 92 13 11 42
22 65 26 31 5 40 11 40 26 0 31 -49 39 -71 12 -17 -21 -39 -28 -52 -16 -10 10
14 51 37 63 28 14 95 7 115 -14z m745 14 c27 -13 56 -64 56 -98 0 -19 -5 -21
-75 -21 -81 0 -97 -13 -53 -44 30 -21 53 -20 76 4 12 13 25 18 35 14 22 -8 21
-20 -3 -44 -39 -39 -98 -38 -146 3 -21 18 -28 35 -32 75 -4 49 -2 54 31 87 37
37 67 44 111 24z m549 -3 c15 -8 27 -11 27 -5 0 5 9 9 20 9 19 0 20 -7 20
-115 0 -133 -11 -167 -61 -184 -43 -15 -102 2 -129 36 -19 25 -20 28 -5 39 13
10 21 6 44 -17 22 -22 35 -27 57 -23 37 7 42 12 50 54 7 34 7 35 -13 18 -27
-24 -63 -22 -104 5 -65 43 -65 131 0 174 40 27 56 28 94 9z m1145 -6 c19 -18
22 -31 22 -111 l0 -89 -27 1 c-16 0 -45 -2 -65 -6 -31 -6 -40 -4 -63 19 -19
19 -24 32 -20 49 11 35 30 49 81 58 56 11 62 15 48 37 -17 27 -55 27 -74 1
-11 -14 -23 -20 -34 -16 -22 9 -20 24 9 52 31 32 91 34 123 5z m217 -7 c8 -10
15 -24 15 -30 0 -19 -37 -16 -44 3 -9 25 -60 14 -64 -13 -3 -19 3 -23 39 -29
76 -13 101 -63 53 -111 -22 -22 -32 -25 -67 -20 -39 5 -77 34 -77 58 0 15 37
10 50 -7 20 -23 64 -14 68 14 2 13 -2 22 -10 22 -39 0 -86 22 -96 45 -14 29
-2 68 25 84 25 16 92 6 108 -16z m233 -8 c13 -16 22 -39 22 -61 l0 -34 -75 0
c-79 0 -88 -7 -55 -40 25 -25 62 -26 85 0 14 16 21 17 38 8 20 -10 20 -12 -11
-39 -71 -63 -182 -11 -182 86 0 37 33 93 63 105 36 15 90 3 115 -25z m-4282
-32 c13 -32 28 -67 33 -77 6 -16 13 -6 38 55 26 62 36 75 57 77 l26 3 -51
-113 c-28 -62 -58 -130 -67 -150 -11 -29 -21 -38 -39 -38 -28 0 -28 -3 -3 56
l21 47 -21 44 c-11 23 -30 64 -42 91 -12 26 -23 50 -25 55 -2 4 8 7 22 7 22 0
30 -8 51 -57z m304 37 c24 -24 25 -36 3 -44 -10 -4 -20 -1 -25 9 -10 17 -63
21 -73 5 -11 -18 13 -37 55 -44 39 -6 70 -35 70 -65 0 -8 -10 -25 -22 -38 -32
-34 -100 -32 -135 3 -23 23 -24 27 -10 36 12 6 25 3 46 -13 33 -24 71 -19 71
11 0 19 -19 30 -49 30 -10 0 -31 10 -46 21 -22 18 -26 27 -21 53 4 17 14 37
23 44 27 19 90 15 113 -8z m2070 0 c24 -24 25 -36 3 -44 -10 -4 -23 1 -35 14
-21 23 -39 25 -56 8 -22 -22 -13 -37 26 -44 59 -10 82 -29 82 -69 0 -65 -95
-91 -146 -40 -25 25 -25 45 0 45 8 0 19 -7 26 -15 14 -16 65 -20 74 -6 12 19
-6 39 -41 44 -66 11 -95 66 -56 109 23 26 96 25 123 -2z m490 8 c0 -9 3 -9 12
0 20 20 79 14 105 -10 21 -19 23 -30 23 -110 0 -81 -2 -88 -20 -88 -18 0 -20
7 -20 78 0 86 -8 102 -52 102 -37 0 -48 -24 -48 -109 0 -64 -2 -71 -20 -71
-19 0 -20 7 -20 110 0 103 1 110 20 110 11 0 20 -5 20 -12z m353 0 c4 -10 7
-10 18 0 16 15 83 16 110 2 25 -14 49 -62 49 -98 0 -76 -89 -135 -151 -100
l-29 17 0 -54 c0 -48 -2 -55 -20 -55 -19 0 -20 7 -20 150 0 141 1 150 19 150
11 0 21 -6 24 -12z"/>
<path d="M6845 6691 c-66 -40 -94 -99 -95 -196 0 -86 15 -128 60 -168 42 -39
90 -53 147 -44 45 8 75 27 110 73 23 31 28 49 31 108 6 117 -27 194 -99 231
-40 21 -117 19 -154 -4z"/>
<path d="M3585 6692 c-67 -31 -125 -114 -125 -179 0 -10 53 -13 230 -13 l230
0 0 23 c0 42 -49 123 -92 153 -36 25 -52 29 -122 32 -63 2 -90 -2 -121 -16z"/>
<path d="M5407 6686 c-65 -18 -116 -62 -152 -131 -28 -55 -30 -65 -30 -174 0
-107 2 -121 28 -173 49 -99 132 -143 258 -136 97 5 153 42 198 130 28 56 34
79 38 155 7 106 -11 177 -57 242 -55 76 -183 115 -283 87z"/>
<path d="M4230 5077 c-61 -41 -75 -78 -75 -202 0 -98 3 -115 24 -152 48 -83
143 -104 211 -46 54 45 65 77 65 193 0 87 -4 112 -21 145 -42 82 -134 110
-204 62z"/>
<path d="M2220 5240 l0 -170 108 0 c171 0 217 36 217 170 0 135 -45 170 -217
170 l-108 0 0 -170z"/>
<path d="M3494 5081 c-64 -39 -98 -170 -74 -284 9 -46 21 -68 54 -103 40 -42
46 -44 98 -44 65 0 97 20 130 83 19 35 22 59 23 142 0 85 -3 106 -23 143 -13
23 -37 52 -55 62 -42 26 -112 26 -153 1z"/>
<path d="M7124 5081 c-51 -31 -74 -95 -74 -203 0 -77 4 -102 24 -145 29 -62
64 -83 137 -83 48 0 55 3 89 39 44 46 60 100 60 203 0 88 -27 151 -79 185 -43
29 -113 31 -157 4z"/>
<path d="M3827 3588 c-54 -42 -32 -138 33 -138 61 0 84 90 34 129 -31 24 -44
26 -67 9z"/>
<path d="M4904 3585 c-38 -26 -38 -102 0 -127 23 -16 65 -8 80 14 22 31 20 84
-4 108 -24 24 -48 25 -76 5z"/>
</g>
</svg>
